<svg role="img" viewBox="0 0 24 24" xmlns="http://www.w3.org/2000/svg"><title>GitHub</title><path d="M12 0C5.371 0 0 5.371 0 12a12 12 0 008.207 11.385c.6.113.793-.26.793-.577v-2.234c-3.338.725-4.033-1.61-4.033-1.61-.547-1.387-1.335-1.757-1.335-1.757-1.09-.744.082-.729.082-.729 1.205.085 1.84 1.237 1.84 1.237 1.07 1.834 2.808 1.304 3.492.997.107-.776.42-1.304.762-1.603-2.665-.304-5.466-1.332-5.466-5.93 0-1.31.467-2.381 1.235-3.221-.124-.303-.535-1.524.117-3.176 0 0 1.008-.322 3.3 1.23a11.51 11.51 0 013.003-.404c1.018.004 2.043.138 3.003.404 2.29-1.552 3.296-1.23 3.296-1.23.654 1.653.243 2.874.12 3.176.77.84 1.233 1.911 1.233 3.221 0 4.61-2.804 5.625-5.475 5.921.43.37.823 1.102.823 2.222v3.293c0 .32.192.694.8.576A12.004 12.004 0 0024 12c0-6.629-5.371-12-12-12z"/></svg>