<svg role="img" viewBox="0 0 24 24" xmlns="http://www.w3.org/2000/svg"><title>LinkedIn</title><path d="M20.447 20.452H17.2V14.84c0-1.338-.026-3.065-1.867-3.065-1.868 0-2.154 1.46-2.154 2.97v5.707H9.027V9h3.112v1.561h.045c.434-.822 1.494-1.687 3.075-1.687 3.29 0 3.894 2.164 3.894 4.978v6.6zM5.337 7.433a1.805 1.805 0 110-3.61 1.805 1.805 0 010 3.61zM6.78 20.452H3.89V9h2.89zM22.225 0H1.771C.792 0 0 .774 0 1.728v20.543C0 23.226.792 24 1.771 24h20.451C23.2 24 24 23.226 24 22.271V1.728C24 .774 23.2 0 22.222 0z"/></svg>